<?xml version="1.0" encoding="utf-8"?>
<!-- Generator: Adobe Illustrator 22.0.1, SVG Export Plug-In . SVG Version: 6.00 Build 0)  -->
<svg version="1.1" id="Capa_1" xmlns="http://www.w3.org/2000/svg" xmlns:xlink="http://www.w3.org/1999/xlink" x="0px" y="0px"
	 viewBox="0 0 500 500" style="enable-background:new 0 0 500 500;" xml:space="preserve">
<style type="text/css">
	.st0{fill:#232323;}
	.st1{fill:#353535;}
</style>
<circle class="st0" cx="252.4" cy="247.5" r="240.8"/>
<g>
	<circle class="st1" cx="251.6" cy="189.8" r="103.3"/>
	<path class="st1" d="M324.2,302.8L324.2,302.8C324.2,302.8,324.2,302.8,324.2,302.8c-18.6,18.4-44.3,29.8-72.6,29.8
		s-53.9-11.4-72.6-29.8c0,0,0,0,0,0h0c-39.8,0-72,32.2-72,72v17c0,9.3,7.5,16.8,16.8,16.8h258.7c9.3,0,16.8-7.5,16.8-16.8v-13.9
		C399.3,336.4,365.7,302.8,324.2,302.8z M257.1,391.3h-6.3l-21.3-45c0,0,28.4,6.3,47.4,0L257.1,391.3z"/>
</g>
</svg>
